<?xml version="1.0" standalone="no"?>
<!DOCTYPE svg PUBLIC "-//W3C//DTD SVG 1.1//EN" "http://www.w3.org/Graphics/SVG/1.1/DTD/svg11.dtd" >
<!--
2013-9-30: Created.
-->
<svg>
<metadata>
Created by iconfont
</metadata>
<defs>

<font id="iconfont" horiz-adv-x="1024" >
  <font-face
    font-family="iconfont"
    font-weight="500"
    font-stretch="normal"
    units-per-em="1024"
    ascent="896"
    descent="-128"
  />
    <missing-glyph />
    
    <glyph glyph-name="vertical_line" unicode="&#58938;" d="M531.185456-47.532317000000035c0-8.899694-6.493901-16.114003-14.503319-16.114003l-9.364275 0c-8.010441 0-14.504342 7.214309-14.504342 16.114003L492.81352 815.53334c0 8.898671 6.493901 16.114003 14.504342 16.114003l9.364275 0c8.009418 0 14.503319-7.215332 14.503319-16.114003L531.185456-47.532317000000035z"  horiz-adv-x="1024" />

    
    <glyph glyph-name="jijianfasong" unicode="&#59553;" d="M925.6 336.8L152 750.4c-11.2 5.6-24.8-3.2-23.2-15.2l60-714.4c0.8-11.2 12-17.6 22.4-13.6L460.8 112l136.8-155.2c8.8-9.6 24-5.6 27.2 6.4l65.6 245.6 235.2 99.2c11.2 5.6 12 22.4 0 28.8z m-328-305.6l-72 128-368 568 488-504-48-192z"  horiz-adv-x="1024" />

    
    <glyph glyph-name="danju-xianxing" unicode="&#59565;" d="M800 704H640c0 70.4-57.6 128-128 128s-128-57.6-128-128H224c-17.6 0-32-14.4-32-32v-704c0-17.6 14.4-32 32-32h576c17.6 0 32 14.4 32 32V672c0 17.6-14.4 32-32 32z m-288 32c17.6 0 32-14.4 32-32s-14.4-32-32-32-32 14.4-32 32 14.4 32 32 32z m256-736H256V640h64v-64h384v64h64v-640z m-64 384H320v64h384v-64z m0-128H320v64h384v-64zM576 128H320v64h256v-64z"  horiz-adv-x="1024" />

    
    <glyph glyph-name="chuangjiandanju-xianxing" unicode="&#59568;" d="M768 704H640c0 70.4-57.6 128-128 128s-128-57.6-128-128H256c-35.2 0-64-28.8-64-64v-640c0-35.2 28.8-64 64-64h512c35.2 0 64 28.8 64 64V640c0 35.2-28.8 64-64 64z m-256 32c17.6 0 32-14.4 32-32s-14.4-32-32-32-32 14.4-32 32 14.4 32 32 32z m256-736H256V640h64v-64h384v64h64v-640zM672 256H544v-128h-64V256H352v64h128V448h64v-128h128v-64z"  horiz-adv-x="1024" />

    
    <glyph glyph-name="yonghu" unicode="&#59652;" d="M500 767.2c-95.2-5.6-173.6-83.2-180-178.4-7.2-112 80.8-205.6 191.2-205.6 106.4 0 192 86.4 192 192 0.8 110.4-92 198.4-203.2 192zM512 320.8c-128 0-383.2-64-383.2-192v-96c0-17.6 14.4-32 32-32h702.4c17.6 0 32 14.4 32 32V129.6c0 127.2-255.2 191.2-383.2 191.2z"  horiz-adv-x="1024" />

    
    <glyph glyph-name="jiantou" unicode="&#58956;" d="M69 404h837v-11H69zM925 398.4l-137 37.4V361z"  horiz-adv-x="1024" />

    
    <glyph glyph-name="zhezhao" unicode="&#58958;" d="M512 896H0v-512C0 666.8 229.2 896 512 896zM0 384v-512h512C229.2-128 0 101.2 0 384zM512 896c282.8 0 512-229.2 512-512V896H512zM512-128h512V384c0-282.8-229.2-512-512-512z"  horiz-adv-x="1024" />

    
    <glyph glyph-name="zhezhao2" unicode="&#58960;" d="M512 896C229.2 896 0 666.8 0 384s229.2-512 512-512 512 229.2 512 512S794.8 896 512 896z m0-812c-165.7 0-300 134.3-300 300s134.3 300 300 300 300-134.3 300-300-134.3-300-300-300z"  horiz-adv-x="1024" />

    
    <glyph glyph-name="fangdajing" unicode="&#58961;" d="M1024-31.7L711.6 280.7c47 65.9 73.2 144.1 73.2 226.7 0 104.9-40.9 203.4-115 277.5C521.6 933 263 933 115 784.9 40.9 710.8 0 612.3 0 507.4 0 402.7 40.9 304 115 229.9s172.6-115 277.5-115c82.6 0 160.8 26.2 226.7 73.2l312.4-312.4 92.4 92.6zM207.5 322.4c-49.4 49.4-76.6 115.1-76.6 185s27.2 135.5 76.6 185 115.1 76.6 185 76.6 135.5-27.2 185-76.6c49.4-49.4 76.6-115.1 76.6-185s-27.2-135.5-76.6-185c-99-98.8-271.2-98.8-370 0z"  horiz-adv-x="1024" />

    
    <glyph glyph-name="tuichu" unicode="&#58962;" d="M965.3 543.8c-27.3 67.5-68 126.6-121.1 175.7-30.2 27.9-63.9 51.9-100.2 71.4-22.6 12.2-50.9 3.7-63-18.9s-3.7-50.9 19-63c29.4-15.8 56.7-35.3 81.1-57.9 42.9-39.7 75.9-87.5 98-142.2 81.7-202.3-16.4-433.3-218.7-515C458-87.9 227 10.2 145.3 212.5c-75.8 187.8 1.4 401.3 179.6 496.8 22.7 12.1 31.2 40.3 19.1 63s-40.4 31.2-63 19C60.7 673.4-34.7 409.6 59 177.7 135.8-12.4 319.3-128 512.7-128c60.9 0 122.7 11.4 182.5 35.6 249.8 100.9 371 386.3 270.1 636.2zM512.1 430.5c25.7 0 46.5 20.8 46.5 46.5V849.5c0 25.7-20.8 46.5-46.5 46.5s-46.5-20.8-46.5-46.5v-372.4c0-25.7 20.8-46.6 46.5-46.6z"  horiz-adv-x="1024" />

    
    <glyph glyph-name="jiedian-ren" unicode="&#58964;" d="M1022.9-78c-5.6 69.2-185.1 140.9-291.3 183-68.7 27.3-107 70.9-114.7 131-1.3 9.4-1.8 19.8-1.4 31.3-0.5 4.3-0.2 9 0.8 14.1 0.1 0.6 0.1 1.3 0.4 1.9 0 0.2 0.2 0.5 0.2 0.7 46.9 33 78.2 86.7 80.2 147.9 26.4 2.4 50.6 32.8 56.2 72.8 4.2 29.7-3 57.2-17.1 73.3-5.6 6.4 3.1 72.2 1.3 97.2C733.3 796.6 634.4 894.1 512.2 896h-0.2C389.8 894.1 290.9 796.6 286.7 675c-1.8-25 6.8-90.8 1.3-97.2-14.1-16.1-21.3-43.5-17.1-73.3 5.6-40 29.8-70.4 56.2-72.8 2-61.1 33.2-114.6 80-147.7 0.1-0.2 0.2-0.6 0.3-0.8 0.1-0.6 0.1-1.3 0.2-1.9 1-5.1 1.3-9.8 0.8-14.1 0.4-11.5-0.1-21.9-1.4-31.3-7.8-60.1-46-103.7-114.7-131C186 62.9 6-8.9 0.6-78l-0.6-50h1024l-1.1 50z"  horiz-adv-x="1024" />

    
    <glyph glyph-name="sousuo" unicode="&#58965;" d="M480.8 209.2c-189.4 0-343.4 154-343.4 343.4S291.4 896 480.8 896s343.4-154 343.4-343.4-154.1-343.4-343.4-343.4z m0 595.2c-138.9 0-251.8-113-251.8-251.8s113-251.8 251.8-251.8 251.8 113 251.8 251.8-113 251.8-251.8 251.8zM578.482 272.022l79.528 45.443 228.553-399.98-79.527-45.443z"  horiz-adv-x="1024" />

    
    <glyph glyph-name="xingxing" unicode="&#58968;" d="M512 46.9L195.6-128 256 242.5 0 504.9l353.8 54L512 896l158.2-337.1 353.8-54-256-262.4 60.4-370.5z"  horiz-adv-x="1024" />

    
    <glyph glyph-name="huchu" unicode="&#58969;" d="M918.654811 116.486622c-47.094767 19.7978-94.4895 38.895678-142.384178 56.993667-13.798467 5.299411-29.196756 7.699144-43.995111 9.098988-38.095767 3.699589-70.392178-10.098878-98.989-34.096211-9.998889-8.399067-19.397844-17.498056-29.896678-25.097211-38.095767-27.596933-75.291633-26.897011-110.187755 4.399511-45.694922 40.795467-88.890122 83.6907-129.385622 129.185645l-12.398623 13.598489c-40.795467 45.294967-79.091211 92.489722-114.687255 142.1842-27.196978 37.895789-23.597378 74.591711 8.799022 108.587933 8.899011 9.398956 19.297856 17.498056 28.896789 26.397067 27.596933 25.097211 45.194978 55.093878 46.094878 92.889678 0.399956 14.798356-0.199978 29.996667-3.999556 44.0951-12.498611 48.894567-25.997111 97.789133-40.295522 146.183755-4.199533 14.298411-11.498722 28.096878-19.597822 40.795467-14.798356 23.097433-34.096211 29.196756-60.493278 20.497722-32.096433-10.698811-60.193311-28.696811-84.990556-51.194311-57.893567-52.694144-93.989556-117.086989-106.888122-193.878456-2.999667-22.297522-0.8999-43.795133 5.599378-65.392733C44.9519 462.548166 98.445955 354.660155 169.038111 257.170989h-0.599933c2.499722-3.399622 4.799467-6.599267 7.299189-9.998889 20.297744-27.096989 41.695367-52.994111 63.8929-77.991334 1.099878-1.199867 2.299744-2.599711 3.499611-3.799577 2.299744-2.599711 4.699478-5.199422 6.999222-7.799134 2.799689-3.099656 5.599378-5.999333 8.399067-9.098989 0.699922-0.699922 1.399844-1.399844 2.099766-2.299744 18.8979-19.997778 38.595711-39.695589 58.993445-58.793467 3.099656-2.899678 6.099322-5.499389 9.098989-8.399066l0.099988 0.599933c89.890011-80.691033 192.078656-145.983778 307.865789-194.478389 20.997667-8.799022 42.2953-13.398511 65.092767-13.098545 78.891233 3.399622 147.883567 30.996556 207.8769 81.490945 25.697144 21.5976 47.094767 46.994778 61.693145 77.291411 12.098656 24.797244 8.199089 44.495056-13.298522 61.793133-12.398622 9.198978-25.397178 17.898011-39.395623 23.897345zM752.973222 312.464844c-14.3984 0-28.7968 5.499389-39.795577 16.498167-21.997556 21.997556-21.997556 57.5936 0 79.591155l148.883455 148.883456-148.883455 148.783467c-21.997556 21.997556-21.997556 57.5936 0 79.591155s57.5936 21.997556 79.591155 0l228.374622-228.374622-228.474611-228.5746c-10.898789-10.998778-25.297189-16.398178-39.695589-16.398178zM509.200311 614.731255h412.554156c31.096544 0 56.293744-25.1972 56.293744-56.293744s-25.1972-56.293744-56.293744-56.293744H509.200311c-31.096544 0-56.293744 25.1972-56.293744 56.293744s25.1972 56.293744 56.293744 56.293744z"  horiz-adv-x="1024" />

    
    <glyph glyph-name="huru" unicode="&#58970;" d="M940.252411 116.486622c-47.094767 19.7978-94.4895 38.895678-142.384178 56.993667-13.798467 5.299411-29.196756 7.699144-43.995111 9.098988-38.095767 3.699589-70.392178-10.098878-98.989-34.096211-9.998889-8.399067-19.397844-17.498056-29.896678-25.097211-38.095767-27.596933-75.291633-26.897011-110.187755 4.399511-45.794911 40.895456-88.890122 83.790689-129.385622 129.285634L373.015444 270.5695c-40.795467 45.194978-79.091211 92.489722-114.687255 142.1842-27.196978 37.895789-23.597378 74.591711 8.799022 108.587933 8.899011 9.398956 19.297856 17.498056 28.896789 26.397067 27.596933 25.097211 45.194978 55.093878 46.094878 92.889678 0.399956 14.798356-0.199978 29.996667-3.999556 44.0951-12.498611 48.894567-25.997111 97.789133-40.295522 146.183755-4.299522 14.298411-11.598711 28.096878-19.697811 40.795467-14.698367 23.097433-33.996222 29.196756-60.593267 20.497722-32.096433-10.698811-60.193311-28.696811-84.990555-51.194311-57.793578-52.694144-93.889567-117.086989-106.788134-193.878456-2.999667-22.297522-0.8999-43.795133 5.599378-65.392733 35.0961-119.186756 88.590156-227.074767 159.182311-324.563933h-0.599933c2.499722-3.399622 4.799467-6.599267 7.299189-9.998889 20.297744-27.096989 41.695367-52.994111 63.8929-77.991334 1.099878-1.199867 2.299744-2.599711 3.499611-3.799577 2.299744-2.599711 4.699478-5.199422 6.999222-7.799134 2.799689-3.099656 5.599378-5.999333 8.399067-9.098989 0.699922-0.699922 1.399844-1.399844 2.099766-2.299744 18.8979-19.997778 38.595711-39.695589 58.993445-58.793467 3.099656-2.899678 6.099322-5.499389 9.098989-8.399066l0.099989 0.599933c89.890011-80.691033 192.078656-145.983778 307.865789-194.478389 20.997667-8.799022 42.2953-13.398511 65.092766-13.098545 78.891233 3.399622 147.883567 30.996556 207.8769 81.490945 25.697144 21.5976 47.094767 46.994778 61.693145 77.291411 12.098656 24.797244 8.199089 44.495056-13.298522 61.793133-12.298633 9.198978-25.297189 17.898011-39.295634 23.897345z"  horiz-adv-x="1024" />

    
    <glyph glyph-name="xingzhenhuabushoucang" unicode="&#58971;" d="M512.01506 22.1l-252.2-138.7c-27.4-15.1-61.9-5.1-77 22.4-6.1 11.1-8.3 24-6.3 36.5l48.8 297.6L16.21506 453c-21.9 22.4-21.6 58.3 0.8 80.2 8.5 8.3 19.4 13.8 31.2 15.6l286.6 43.5 125.9 266.8c13.4 28.3 47.2 40.5 75.5 27.1 11.9-5.6 21.5-15.2 27.1-27.1l125.9-266.8 286.6-43.5c31-4.7 52.3-33.6 47.6-64.6-1.8-11.8-7.2-22.7-15.6-31.2l-209.1-213.1 48.8-297.6c5.1-30.9-15.9-60.1-46.8-65.1-12.5-2.1-25.4 0.2-36.5 6.3l-252.2 138.6z"  horiz-adv-x="1024" />

    
    <glyph glyph-name="xingzhenhuabuzengjialianxian" unicode="&#58972;" d="M744.7 896C616.2 896 512 791.8 512 663.3c0-56 20.6-106.6 53.5-146.8L368.6 319.6c-27.5 11.5-57.6 17.9-89.3 17.9-128.5 0-232.7-104.2-232.7-232.7S150.7-128 279.3-128 512-23.8 512 104.7c0 62.7-25.1 119.4-65.4 161.2l191.6 191.6c32.1-16.6 67.9-27 106.5-27 128.5 0 232.7 104.2 232.7 232.7S873.3 896 744.7 896zM279.3-34.9c-77 0-139.6 62.6-139.6 139.6s62.6 139.6 139.6 139.6 139.6-62.6 139.6-139.6-62.6-139.6-139.6-139.6z m465.4 558.5c-77 0-139.6 62.6-139.6 139.6S667.7 802.9 744.7 802.9s139.6-62.6 139.6-139.6-62.6-139.7-139.6-139.7z"  horiz-adv-x="1024" />

    
    <glyph glyph-name="xingzhenhuabuzengjiajiedian" unicode="&#58974;" d="M512-128C229.7-128 0 101.7 0 384S229.7 896 512 896s512-229.7 512-512-229.7-512-512-512z m0 910.2c-219.6 0-398.2-178.6-398.2-398.2S292.4-14.2 512-14.2 910.2 164.4 910.2 384 731.6 782.2 512 782.2z"  horiz-adv-x="1024" />

    
    <glyph glyph-name="xingzhenhuabu-chexiao" unicode="&#58975;" d="M624.6 659.6H238.3L362.7 784c25.6 25.6 25.6 67.2 0 92.8-25.6 25.6-67.2 25.6-92.8 0l-232-232c-25.6-25.6-25.6-67.2 0-92.8l232-232c12.8-12.8 29.6-19.2 46.4-19.2s33.6 6.4 46.4 19.2c25.6 25.6 25.6 67.2 0 92.8L247.1 528.3h377.5c137.6 0 249.5-117.8 249.5-262.5S762.2 3.2999999999999545 624.6 3.2999999999999545H414.9c-36.3 0-65.6-29.4-65.6-65.6 0-36.2 29.4-65.6 65.6-65.6h209.7c210 0 380.8 176.6 380.8 393.8S834.6 659.6 624.6 659.6z"  horiz-adv-x="1024" />

    
    <glyph glyph-name="xingzhenhuabu-zhongzuo" unicode="&#58977;" d="M399.4 659.6h386.3L661.3 784c-25.6 25.6-25.6 67.2 0 92.8 25.6 25.6 67.2 25.6 92.8 0l232-232c25.6-25.6 25.6-67.2 0-92.8l-232-232c-12.8-12.8-29.6-19.2-46.4-19.2-16.8 0-33.6 6.4-46.4 19.2-25.6 25.6-25.6 67.2 0 92.8l115.6 115.6H399.4c-137.6 0-249.5-117.8-249.5-262.5s111.9-262.5 249.5-262.5h209.7c36.3 0 65.6-29.4 65.6-65.6 0-36.2-29.4-65.6-65.6-65.6H399.4c-210 0-380.8 176.6-380.8 393.8s170.8 393.6 380.8 393.6z"  horiz-adv-x="1024" />

    
    <glyph glyph-name="xingnengmoshi" unicode="&#58979;" d="M426.7-128l48 554.7h336zM597.3 896l-48-554.7h-336z"  horiz-adv-x="1024" />

    
    <glyph glyph-name="xingzhenhuabuzengjialianxian1" unicode="&#58983;" d="M243.8 359.6C109.2 359.6 0 250.5 0 115.8S109.2-128 243.8-128s243.8 109.2 243.8 243.8-109.1 243.8-243.8 243.8z m0-390.1c-80.7 0-146.3 65.6-146.3 146.3s65.6 146.3 146.3 146.3 146.3-65.6 146.3-146.3-65.6-146.3-146.3-146.3zM780.2 896C645.5 896 536.4 786.8 536.4 652.2s109.2-243.8 243.8-243.8c134.7 0 243.8 109.2 243.8 243.8S914.8 896 780.2 896z m0-390.1c-80.7 0-146.3 65.6-146.3 146.3S699.5 798.5 780.2 798.5c80.7 0 146.3-65.6 146.3-146.3s-65.6-146.3-146.3-146.3zM320.218 244.135L620.17 544.087l68.942-68.942L389.16 175.193z"  horiz-adv-x="1024" />

    
    <glyph glyph-name="ziyoupaixu" unicode="&#58984;" d="M746 488.2l-223.1 226.2M777.58 487.972l-31.759-31.313-254.37 257.993 31.759 31.314zM326.9 296.2l446.3 156.3M801.646 438.69l-488.52-170.724-14.747 42.197 488.52 170.723zM326.9 315.4l223.2-264.8M547.4 19.2l-251.9 298.9 34.1 28.8 251.9-299zM639.3 762a134 133.9 90 1 1-267.8 0 134 133.9 90 1 1 267.8 0ZM460.8 315.4a134 133.9 90 1 1-267.8 0 134 133.9 90 1 1 267.8 0ZM728.6 6a134 133.9 90 1 1-267.8 0 134 133.9 90 1 1 267.8 0ZM907.1 452.6a134 133.9 90 1 1-267.8 0 134 133.9 90 1 1 267.8 0Z"  horiz-adv-x="1024" />

    
    <glyph glyph-name="dituzhanshi" unicode="&#58985;" d="M512.1 896C354.3 896 226.4 767.2 226.4 608.3c0-70.3 25-134.6 66.5-184.6L475.3 184c2.6-3.5 5.8-6.6 9.3-9.2 21-15.8 50.9-11.6 66.7 9.4l182.6 242.4C774 476.1 798 539.4 798 608.2 797.9 767.2 670 896 512.1 896z m0-381c-52.6 0-95.3 42.6-95.3 95.3s42.6 95.3 95.3 95.3 95.3-42.6 95.3-95.3-42.7-95.3-95.3-95.3zM512.1-128c-197 0-357.2 117.5-357.2 262 0 13.2 10.7 23.8 23.8 23.8 13.2 0 23.8-10.7 23.8-23.8 0-118.2 138.9-214.3 309.6-214.3S821.7 15.8 821.7 134c0 13.2 10.7 23.8 23.8 23.8s23.8-10.7 23.8-23.8c0-144.5-160.2-262-357.2-262z"  horiz-adv-x="1024" />

    
    <glyph glyph-name="shuzhuangpailie" unicode="&#58986;" d="M930.9 235.1c-16.7 0-32.4-4.4-46-12.1L652.1 484.9c28.7 32.8 46.1 75.6 46.1 122.6 0 102.8-83.4 186.2-186.2 186.2s-186.2-83.4-186.2-186.2c0-46.5 17.1-89.1 45.3-121.7l-235-261.1c-12.9 6.7-27.5 10.5-43 10.5C41.7 235.1 0 193.4 0 142c0-51.4 41.7-93.1 93.1-93.1 51.4 0 93.1 41.7 93.1 93.1 0 19-5.7 36.7-15.5 51.4l235 261.1c24.1-16.8 52.4-28 83-31.9V233c-66-11.1-116.4-68.5-116.4-137.7 0-77.1 62.5-139.6 139.6-139.6s139.6 62.5 139.6 139.6c0 69.2-50.3 126.6-116.4 137.7V422.7c30.2 3.8 58.1 14.8 82 31.2l234.1-263.4c-8.6-14.1-13.6-30.7-13.6-48.5 0-51.4 41.7-93.1 93.1-93.1 51.4 0 93.1 41.7 93.1 93.1 0.2 51.4-41.5 93.1-92.9 93.1z"  horiz-adv-x="1024" />

    
    <glyph glyph-name="zengjiajiedian" unicode="&#58987;" d="M512-128C229.7-128 0 101.7 0 384S229.7 896 512 896s512-229.7 512-512c0-28.3-22.9-51.2-51.2-51.2-28.3 0-51.2 22.9-51.2 51.2 0 225.9-183.8 409.6-409.6 409.6S102.4 609.9 102.4 384 286.1-25.6 512-25.6c28.3 0 51.2-22.9 51.2-51.2 0-28.3-22.9-51.2-51.2-51.2zM947.2 25.6c28.3 0 51.2 22.9 51.2 51.2 0 28.3-22.9 51.2-51.2 51.2h-256c-28.3 0-51.2-22.9-51.2-51.2 0-28.3 22.9-51.2 51.2-51.2h256zM870.4-51.2v256c0 28.3-22.9 51.2-51.2 51.2S768 233.1 768 204.8v-256c0-28.3 22.9-51.2 51.2-51.2s51.2 22.9 51.2 51.2z"  horiz-adv-x="1026" />

    
    <glyph glyph-name="sousuoxin" unicode="&#58988;" d="M495.196 120.692c-22.245-0.038-44.849 1.917-67.5 5.91-210.453 37.11-351.514 238.565-314.405 449.018 37.109 210.453 238.402 351.746 449 314.307 210.471-37.01 351.532-238.466 314.423-448.92-33.115-187.802-197.12-320.336-381.518-320.315z m-0.289 656.016c-127.744-0.018-241.19-91.711-264.128-221.804-25.7-145.752 71.963-285.23 217.616-310.912 145.509-25.353 285.132 71.98 310.831 217.732 25.683 145.653-71.98 285.131-217.634 310.814-15.658 2.76-31.264 4.091-46.685 4.17zM846.862-127.952c-18.792-0.037-37.336 8.817-48.919 25.482L604.464 173.723c-18.9 26.992-12.353 64.12 14.639 83.02 27.09 18.882 64.2 12.237 83.118-14.657l193.461-276.291c18.9-26.992 12.354-64.12-14.638-83.02a59.1 59.1 0 0 0-34.182-10.727z"  horiz-adv-x="1024" />

    
    <glyph glyph-name="jiahao" unicode="&#58989;" d="M102.4 486.4h819.2c56.6 0 102.4-45.8 102.4-102.4 0-56.6-45.8-102.4-102.4-102.4H102.4C45.8 281.6 0 327.4 0 384c0 56.6 45.8 102.4 102.4 102.4zM614.4 793.6v-819.2c0-56.6-45.8-102.4-102.4-102.4-56.6 0-102.4 45.8-102.4 102.4V793.6C409.6 850.2 455.4 896 512 896c56.6 0 102.4-45.8 102.4-102.4z"  horiz-adv-x="1024" />

    
    <glyph glyph-name="jianhao" unicode="&#58990;" d="M102.4 504.7h819.2c56.6 0 102.4-45.8 102.4-102.4 0-56.6-45.8-102.4-102.4-102.4H102.4C45.8 299.9 0 345.8 0 402.3c0 56.6 45.8 102.4 102.4 102.4z"  horiz-adv-x="1024" />

    
    <glyph glyph-name="zhankai" unicode="&#58992;" d="M518.528 362.629c11.1-18.2 35.3-30.9 56.7-30.9 21.4 0 45.9 12.6 57.2 30.8 29.1-22.1 48.4-57.1 48.4-82.4 1 0.3-210.2-0.7-211.2 0 0.1 24.7 19.5 60.2 48.9 82.5zM749.728 577.629c-89.4 0-162.1 71.4-162.1 159.1 0 87.8 72.7 159.2 162.1 159.2S911.828 824.629 911.828 736.829 839.128 577.629 749.728 577.629z m0 258.1C693.628 835.729 647.928 791.329 647.928 736.829s45.7-98.8 101.8-98.8 101.8 44.3 101.8 98.8-45.6 98.9-101.8 98.9zM163.028 41.629c-89.4 0-162.1 71.4-162.1 159.1s72.7 159.1 162.1 159.1 162.1-71.4 162.1-159.1S252.428 41.629 163.028 41.629z m0 258c-56.2 0-101.8-44.3-101.8-98.8s45.7-98.8 101.8-98.8c56.2 0 101.8 44.3 101.8 98.8s-45.6 98.8-101.8 98.8zM569.528 129.829c-124.8 0-226.2 99.6-226.2 222s101.5 222 226.2 222 226.2-99.6 226.2-222-101.4-222-226.2-222z m0 368.6c-83.2 0-150.8-65.7-150.8-146.6s67.6-146.6 150.8-146.6 150.8 65.8 150.8 146.6-67.6 146.6-150.8 146.6zM607.72 522.451l74.14 136.462 66.255-35.996-74.14-136.462zM263.093 272.795l142.265 58.95 28.863-69.654-142.265-58.951zM644.101 202.602l53.24 53.39 106.073-105.773-53.24-53.391zM861.828-127.971c-89.4 0-162.1 71.4-162.1 159.1s72.7 159.1 162.1 159.1S1023.928 118.829 1023.928 31.129s-72.7-159.1-162.1-159.1z m0 258c-56.2 0-101.8-44.3-101.8-98.8s45.7-98.8 101.8-98.8 101.8 44.3 101.8 98.8c0.1 54.4-45.6 98.8-101.8 98.8zM575.228 412.729m-52.8 0a52.8 52.8 0 1 1 105.6 0 52.8 52.8 0 1 1-105.6 0Z"  horiz-adv-x="1024" />

    
    <glyph glyph-name="shouqi" unicode="&#58993;" d="M689.3935 519.677269c-9.899637 0-19.899271 3.599868-27.698985 10.8996-16.399399 15.299439-17.19937 40.998498-1.999927 57.397897l275.489906 295.189184c15.399436 16.299403 40.998498 17.19937 57.397897 1.999927 16.399399-15.299439 17.19937-40.998498 1.999927-57.397897l-275.489906-295.189184c-7.999707-8.599685-18.799311-12.899527-29.698912-12.899527zM61.316513-123.799154c-9.899637 0-19.899271 3.599868-27.698985 10.899601-16.399399 15.299439-17.19937 40.998498-1.999926 57.397897l275.489905 295.189184c15.299439 16.399399 40.898501 17.19937 57.397897 1.999926 16.399399-15.299439 17.19937-40.998498 1.999927-57.397896L91.015425-110.899627c-7.999707-8.599685-18.799311-12.899527-29.698912-12.899527zM919.785059 478.878764H649.194973c-22.399179 0-40.598512 18.199333-40.598512 40.598512v289.889378c0 22.399179 18.199333 40.598512 40.598512 40.598513s40.598512-18.199333 40.598513-40.598513v-249.290866h229.991573c22.399179 0 40.598512-18.199333 40.598512-40.598512s-18.199333-40.598512-40.598512-40.598512zM368.305265-81.800693c-22.399179 0-40.598512 18.199333-40.598512 40.598513v249.290866h-229.991573c-22.399179 0-40.598512 18.199333-40.598513 40.598512 0 22.399179 18.199333 40.598512 40.598513 40.598512h270.590085c22.399179 0 40.598512-18.199333 40.598513-40.598512v-289.889378c0-22.499176-18.099337-40.598512-40.598513-40.598513zM959.183615-127.999c-10.899601 0-21.699205 4.299842-29.698912 12.899527L653.994797 179.989715c-15.299439 16.399399-14.399472 42.098457 1.999927 57.397897 16.399399 15.299439 42.098457 14.399472 57.397897-1.999927l275.489906-295.189184c15.299439-16.399399 14.399472-42.098457-1.999927-57.397897-7.899711-7.199736-17.799348-10.799604-27.698985-10.799604zM336.106445 511.377573c-10.899601 0-21.699205 4.299842-29.698912 12.899527L30.917627 819.466284c-15.299439 16.399399-14.399472 42.098457 1.999927 57.397897 16.499395 15.299439 42.098457 14.299476 57.397897-1.999927l275.489906-295.189184c15.299439-16.399399 14.399472-42.098457-1.999927-57.397897-7.899711-7.299733-17.799348-10.899601-27.698985-10.8996zM644.795134-83.600627c-22.399179 0-40.598512 18.199333-40.598512 40.598513v289.889378c0 22.399179 18.199333 40.598512 40.598512 40.598512h270.490089c22.399179 0 40.598512-18.199333 40.598513-40.598512 0-22.399179-18.199333-40.598512-40.598513-40.598513h-229.991573v-249.290865c0.099996-22.399179-17.99934-40.598512-40.498516-40.598513zM370.405188 477.578811H99.815103c-22.399179 0-40.598512 18.199333-40.598513 40.598513s18.199333 40.598512 40.598513 40.598512h229.991573v249.290866c0 22.399179 18.199333 40.598512 40.598512 40.598512s40.598512-18.199333 40.598513-40.598512v-289.889378c0-22.499176-18.199333-40.598512-40.598513-40.598513z"  horiz-adv-x="1024" />

    
    <glyph glyph-name="yincang" unicode="&#58994;" d="M247.197758 419.114971h535.584309c26.099235 0 47.298614-21.199379 47.298614-47.298614 0-26.099235-21.199379-47.298614-47.298614-47.298614h-535.584309c-26.099235 0-47.298614 21.199379-47.298614 47.298614 0 26.099235 21.199379 47.298614 47.298614 47.298614zM511.99-127.969001c-282.29173 0-511.985 229.693271-511.985 511.985001s229.693271 511.985 511.985 511.985 511.985-229.693271 511.985001-511.985-229.693271-511.985-511.985001-511.985001z m0 945.172309c-238.793004 0-433.187309-194.294308-433.187309-433.187308s194.394305-433.187309 433.187309-433.187309 433.187309 194.294308 433.187309 433.187309-194.394305 433.187309-433.187309 433.187308z"  horiz-adv-x="1024" />

    
    <glyph glyph-name="zhankaishouqijiaobiao" unicode="&#59006;" d="M313.2-128c-22 0-44 8.4-60.8 25.2-33.6 33.6-33.6 88.1 0 121.7L617.5 384 252.4 749.1c-33.6 33.6-33.6 88.1 0 121.7s88.1 33.6 121.7 0L860.9 384 374-102.8c-16.8-16.8-38.8-25.2-60.8-25.2z"  horiz-adv-x="1024" />

    
    <glyph glyph-name="shaixuan_huaban" unicode="&#59007;" d="M378.1-101.8c-14.9 0-27 12.1-27 27V452.5L28.5 727.2C12 741.2 2 760.8 0.3 782.4c-1.7 21.6 5.1 42.5 19.1 59 15.3 18 37.8 28.4 61.6 28.4h862c44.6 0 81-36.3 81-81 0-23.7-10.3-46.1-28.3-61.5L674.4 452.5v-376.2L589-12.5c-10.3-10.8-27.5-11.1-38.2-0.7-10.8 10.3-11.1 27.4-0.7 38.2l70.3 73.1V477.4l340.1 290.9c6 5.1 9.4 12.6 9.4 20.5 0 14.9-12.1 27-27 27H81c-7.9 0-15.4-3.5-20.5-9.5-4.7-5.5-7-12.5-6.4-19.7 0.6-7.2 3.9-13.7 9.4-18.4l341.7-290.8v-552.2c-0.1-14.9-12.1-27-27.1-27z"  horiz-adv-x="1024" />

    
    <glyph glyph-name="qingchu" unicode="&#59010;" d="M715.280148-127.90001H303.72034c-79.692218 0-144.48589 64.793672-144.48589 144.48589V543.13446c0 14.898545 12.098818 28.197246 26.897373 28.197246s26.897373-10.798945 26.897373-25.697491v-529.048335c0-49.995118 40.596036-90.591153 90.591154-90.591153h411.559808c49.995118 0 90.591153 40.696026 90.591153 90.591153V545.634215c0 14.898545 12.098818 26.897373 26.897374 26.897374 14.898545 0 26.897373-12.098818 26.897373-26.897374v-529.048335c0.19998-79.692218-64.593692-144.48589-144.28591-144.48589zM791.872669 628.12616l-47.495362 25.49751c4.39957 8.29919 7.599258 16.698369 7.599258 49.495166v62.193926c0 32.796797-3.199688 41.195977-7.599258 49.495167-4.499561 8.49917-11.098916 15.098526-19.498096 19.598086-8.39918 4.39957-16.79836 7.599258-49.595157 7.599258H343.716434c-32.796797 0-41.195977-3.199688-49.595157-7.599258-8.39918-4.499561-14.998535-11.098916-19.498096-19.498096-4.39957-8.29919-7.599258-16.698369-7.599258-49.495166v-62.193927c0-32.796797 3.199688-41.195977 7.599258-49.495166l-47.495361-25.49751c-10.498975 19.498096-13.998633 38.39625-13.998633 74.992676v62.193927c0 36.596426 3.499658 55.494581 13.998633 74.992676 9.599063 17.998242 23.597696 31.996875 41.595937 41.595938 19.498096 10.398984 38.496241 13.998633 74.892687 13.998633h331.66761c36.496436 0 55.39459-3.499658 74.892687-13.998633 17.998242-9.599063 31.996875-23.597696 41.595937-41.595938 10.498975-19.498096 13.998633-38.39625 13.998633-74.992676v-62.193927c0.09999-36.596426-3.399668-55.494581-13.898642-75.092666zM132.337076 707.318426h754.426326c29.79709 0 53.894737-24.097647 53.894737-53.894737s-24.097647-53.894737-53.894737-53.894737H132.337076c-29.79709 0-53.894737 24.097647-53.894736 53.894737s24.097647 53.894737 53.894736 53.894737zM374.813397 491.739479c14.898545 0 26.897373-12.098818 26.897373-26.897374v-431.057904c0-14.898545-12.098818-26.897373-26.897373-26.897374-14.898545 0-26.897373 12.098818-26.897373 26.897374V464.842105c-0.09999 14.798555 11.998828 26.897373 26.897373 26.897374zM644.187091 491.739479c-14.898545 0-26.897373-12.098818-26.897373-26.897374v-431.057904c0-14.898545 12.098818-26.897373 26.897373-26.897374s26.897373 12.098818 26.897373 26.897374V464.842105c0.09999 14.798555-11.998828 26.897373-26.897373 26.897374z"  horiz-adv-x="1024" />

    
    <glyph glyph-name="shanchu_" unicode="&#59011;" d="M84.201458 878.896568c27.299907 24.599916 69.399763 22.399924 93.99968-4.899983l802.097266-890.796964c24.599916-27.299907 22.399924-69.399763-4.899983-93.99968-27.299907-24.599916-69.399763-22.399924-93.99968 4.899984L79.201475 784.896889c-24.599916 27.299907-22.399924 69.399763 4.999983 93.999679zM975.398421 878.896568c27.299907-24.599916 29.499899-66.699773 4.899983-93.999679l-802.097266-890.796964c-24.599916-27.299907-66.699773-29.499899-93.99968-4.899984-27.299907 24.599916-29.499899 66.699773-4.899983 93.99968L881.298741 873.996585c24.599916 27.299907 66.699773 29.499899 94.09968 4.899983z"  horiz-adv-x="1024" />

    
    <glyph glyph-name="vertical_line-copy" unicode="&#59012;" d="M531.185456-47.532317000000035c0-8.899694-6.493901-16.114003-14.503319-16.114003l-9.364275 0c-8.010441 0-14.504342 7.214309-14.504342 16.114003L492.81352 815.53334c0 8.898671 6.493901 16.114003 14.504342 16.114003l9.364275 0c8.009418 0 14.503319-7.215332 14.503319-16.114003L531.185456-47.532317000000035z"  horiz-adv-x="1024" />

    
    <glyph glyph-name="dianhuaqianjiaobiao_huaban" unicode="&#59013;" d="M512 384m-204.8 0a204.8 204.8 0 1 1 409.6 0 204.8 204.8 0 1 1-409.6 0ZM512-128C229.7-128 0 101.7 0 384S229.7 896 512 896s512-229.7 512-512-229.7-512-512-512z m0 955.7c-244.7 0-443.7-199-443.7-443.7s199-443.7 443.7-443.7 443.7 199 443.7 443.7S756.7 827.7 512 827.7z"  horiz-adv-x="1024" />

    


  </font>
</defs>
</svg>
